<mxfile host="app.diagrams.net" agent="Mozilla/5.0 (Windows NT 10.0; Win64; x64) AppleWebKit/537.36 (KHTML, like Gecko) Chrome/136.0.0.0 Safari/537.36" version="27.0.3">
  <diagram name="‫صفحه - 1‬" id="ZE83JCWvptQ--PR7GEOe">
    <mxGraphModel dx="1056" dy="581" grid="1" gridSize="10" guides="1" tooltips="1" connect="1" arrows="1" fold="1" page="1" pageScale="1" pageWidth="827" pageHeight="1169" math="0" shadow="0">
      <root>
        <mxCell id="0" />
        <mxCell id="1" parent="0" />
        <mxCell id="XFQT50zC6AlC2kEd5-D_-47" value="&lt;b&gt;سفارش&amp;nbsp;&lt;/b&gt;" style="shape=umlFrame;whiteSpace=wrap;html=1;pointerEvents=0;" vertex="1" parent="1">
          <mxGeometry x="114" y="240" width="600" height="250" as="geometry" />
        </mxCell>
        <mxCell id="XFQT50zC6AlC2kEd5-D_-48" value="" style="endArrow=none;dashed=1;html=1;rounded=0;" edge="1" parent="1">
          <mxGeometry width="50" height="50" relative="1" as="geometry">
            <mxPoint x="210" y="240" as="sourcePoint" />
            <mxPoint x="210" y="490" as="targetPoint" />
          </mxGeometry>
        </mxCell>
        <mxCell id="XFQT50zC6AlC2kEd5-D_-49" value="" style="endArrow=none;dashed=1;html=1;rounded=0;" edge="1" parent="1">
          <mxGeometry width="50" height="50" relative="1" as="geometry">
            <mxPoint x="260" y="240" as="sourcePoint" />
            <mxPoint x="260" y="490" as="targetPoint" />
          </mxGeometry>
        </mxCell>
        <mxCell id="XFQT50zC6AlC2kEd5-D_-50" value="" style="endArrow=none;dashed=1;html=1;rounded=0;" edge="1" parent="1">
          <mxGeometry width="50" height="50" relative="1" as="geometry">
            <mxPoint x="300" y="240" as="sourcePoint" />
            <mxPoint x="300" y="490" as="targetPoint" />
          </mxGeometry>
        </mxCell>
        <mxCell id="XFQT50zC6AlC2kEd5-D_-51" value="" style="endArrow=none;dashed=1;html=1;rounded=0;" edge="1" parent="1">
          <mxGeometry width="50" height="50" relative="1" as="geometry">
            <mxPoint x="360" y="240" as="sourcePoint" />
            <mxPoint x="360" y="490" as="targetPoint" />
          </mxGeometry>
        </mxCell>
        <mxCell id="XFQT50zC6AlC2kEd5-D_-52" value="" style="endArrow=none;dashed=1;html=1;rounded=0;" edge="1" parent="1">
          <mxGeometry width="50" height="50" relative="1" as="geometry">
            <mxPoint x="413" y="240" as="sourcePoint" />
            <mxPoint x="413" y="490" as="targetPoint" />
          </mxGeometry>
        </mxCell>
        <mxCell id="XFQT50zC6AlC2kEd5-D_-53" value="" style="endArrow=none;dashed=1;html=1;rounded=0;" edge="1" parent="1">
          <mxGeometry width="50" height="50" relative="1" as="geometry">
            <mxPoint x="470" y="240" as="sourcePoint" />
            <mxPoint x="470" y="490" as="targetPoint" />
          </mxGeometry>
        </mxCell>
        <mxCell id="XFQT50zC6AlC2kEd5-D_-54" value="" style="endArrow=none;dashed=1;html=1;rounded=0;" edge="1" parent="1">
          <mxGeometry width="50" height="50" relative="1" as="geometry">
            <mxPoint x="530" y="240" as="sourcePoint" />
            <mxPoint x="530" y="490" as="targetPoint" />
          </mxGeometry>
        </mxCell>
        <mxCell id="XFQT50zC6AlC2kEd5-D_-55" value="" style="endArrow=none;dashed=1;html=1;rounded=0;" edge="1" parent="1">
          <mxGeometry width="50" height="50" relative="1" as="geometry">
            <mxPoint x="590" y="240" as="sourcePoint" />
            <mxPoint x="590" y="490" as="targetPoint" />
          </mxGeometry>
        </mxCell>
        <mxCell id="XFQT50zC6AlC2kEd5-D_-56" value="" style="endArrow=none;dashed=1;html=1;rounded=0;" edge="1" parent="1">
          <mxGeometry width="50" height="50" relative="1" as="geometry">
            <mxPoint x="650" y="240" as="sourcePoint" />
            <mxPoint x="650" y="490" as="targetPoint" />
          </mxGeometry>
        </mxCell>
        <mxCell id="XFQT50zC6AlC2kEd5-D_-57" value="" style="endArrow=none;html=1;rounded=0;" edge="1" parent="1">
          <mxGeometry width="50" height="50" relative="1" as="geometry">
            <mxPoint x="119" y="330" as="sourcePoint" />
            <mxPoint x="709" y="330" as="targetPoint" />
          </mxGeometry>
        </mxCell>
        <mxCell id="XFQT50zC6AlC2kEd5-D_-58" value="" style="endArrow=none;html=1;rounded=0;" edge="1" parent="1">
          <mxGeometry width="50" height="50" relative="1" as="geometry">
            <mxPoint x="119" y="410" as="sourcePoint" />
            <mxPoint x="709" y="410" as="targetPoint" />
          </mxGeometry>
        </mxCell>
        <mxCell id="XFQT50zC6AlC2kEd5-D_-59" value="" style="endArrow=none;html=1;edgeStyle=orthogonalEdgeStyle;rounded=0;" edge="1" parent="1">
          <mxGeometry relative="1" as="geometry">
            <mxPoint x="210" y="300" as="sourcePoint" />
            <mxPoint x="700" y="270" as="targetPoint" />
            <Array as="points">
              <mxPoint x="435" y="300" />
              <mxPoint x="435" y="270" />
              <mxPoint x="660" y="270" />
            </Array>
          </mxGeometry>
        </mxCell>
        <mxCell id="XFQT50zC6AlC2kEd5-D_-63" value="" style="endArrow=none;html=1;edgeStyle=orthogonalEdgeStyle;rounded=0;" edge="1" parent="1">
          <mxGeometry relative="1" as="geometry">
            <mxPoint x="220" y="369.98" as="sourcePoint" />
            <mxPoint x="664" y="340" as="targetPoint" />
            <Array as="points">
              <mxPoint x="310" y="349.98" />
              <mxPoint x="399" y="349.98" />
              <mxPoint x="399" y="339.98" />
            </Array>
          </mxGeometry>
        </mxCell>
        <mxCell id="XFQT50zC6AlC2kEd5-D_-64" value="" style="endArrow=none;html=1;edgeStyle=orthogonalEdgeStyle;rounded=0;" edge="1" parent="1">
          <mxGeometry relative="1" as="geometry">
            <mxPoint x="714" y="420" as="sourcePoint" />
            <mxPoint x="234" y="480" as="targetPoint" />
            <Array as="points">
              <mxPoint x="684" y="420" />
              <mxPoint x="684" y="450" />
              <mxPoint x="534" y="450" />
              <mxPoint x="534" y="480" />
            </Array>
          </mxGeometry>
        </mxCell>
        <mxCell id="XFQT50zC6AlC2kEd5-D_-65" value="پرداخت شد&amp;nbsp;" style="text;html=1;align=center;verticalAlign=middle;whiteSpace=wrap;rounded=0;" vertex="1" parent="1">
          <mxGeometry x="150" y="270" width="60" height="30" as="geometry" />
        </mxCell>
        <mxCell id="XFQT50zC6AlC2kEd5-D_-66" value="ایجاد شد&amp;nbsp;" style="text;html=1;align=center;verticalAlign=middle;whiteSpace=wrap;rounded=0;" vertex="1" parent="1">
          <mxGeometry x="150" y="300" width="60" height="30" as="geometry" />
        </mxCell>
        <mxCell id="XFQT50zC6AlC2kEd5-D_-67" value="&lt;b&gt;پرداخت&amp;nbsp;&lt;/b&gt;" style="text;html=1;align=center;verticalAlign=middle;whiteSpace=wrap;rounded=0;" vertex="1" parent="1">
          <mxGeometry x="114" y="330" width="60" height="30" as="geometry" />
        </mxCell>
        <mxCell id="XFQT50zC6AlC2kEd5-D_-68" value="تکمیل شد&amp;nbsp;" style="text;html=1;align=center;verticalAlign=middle;whiteSpace=wrap;rounded=0;" vertex="1" parent="1">
          <mxGeometry x="150" y="350" width="60" height="30" as="geometry" />
        </mxCell>
        <mxCell id="XFQT50zC6AlC2kEd5-D_-69" value="در حال پرداخت&amp;nbsp;" style="text;html=1;align=center;verticalAlign=middle;whiteSpace=wrap;rounded=0;" vertex="1" parent="1">
          <mxGeometry x="140" y="370" width="70" height="30" as="geometry" />
        </mxCell>
        <mxCell id="XFQT50zC6AlC2kEd5-D_-70" value="غیر فعال&amp;nbsp;" style="text;html=1;align=center;verticalAlign=middle;whiteSpace=wrap;rounded=0;" vertex="1" parent="1">
          <mxGeometry x="114" y="390" width="60" height="30" as="geometry" />
        </mxCell>
        <mxCell id="XFQT50zC6AlC2kEd5-D_-71" value="&lt;b&gt;ارسال&lt;/b&gt;" style="text;html=1;align=center;verticalAlign=middle;whiteSpace=wrap;rounded=0;" vertex="1" parent="1">
          <mxGeometry x="100" y="410" width="60" height="30" as="geometry" />
        </mxCell>
        <mxCell id="XFQT50zC6AlC2kEd5-D_-72" value="تحویل یه مشتری&amp;nbsp;" style="text;html=1;align=center;verticalAlign=middle;whiteSpace=wrap;rounded=0;" vertex="1" parent="1">
          <mxGeometry x="135" y="420" width="80" height="30" as="geometry" />
        </mxCell>
        <mxCell id="XFQT50zC6AlC2kEd5-D_-73" value="در حال ارسال&amp;nbsp;" style="text;html=1;align=center;verticalAlign=middle;whiteSpace=wrap;rounded=0;" vertex="1" parent="1">
          <mxGeometry x="135" y="440" width="70" height="30" as="geometry" />
        </mxCell>
        <mxCell id="XFQT50zC6AlC2kEd5-D_-74" value="غیر فعال&amp;nbsp;" style="text;html=1;align=center;verticalAlign=middle;whiteSpace=wrap;rounded=0;" vertex="1" parent="1">
          <mxGeometry x="145" y="460" width="60" height="30" as="geometry" />
        </mxCell>
      </root>
    </mxGraphModel>
  </diagram>
</mxfile>
